<?xml version="1.0" encoding="UTF-8"?>
<svg xmlns="http://www.w3.org/2000/svg" viewBox="0 0 512 512" width="512" height="512" id="icon">
    <defs>
      <filter id="glow" x="-20%" y="-20%" width="140%" height="140%">
        <feGaussianBlur stdDeviation="4" result="blur"></feGaussianBlur>
        <feComposite in="SourceGraphic" in2="blur" operator="over"></feComposite>
      </filter>
    </defs>

    <!-- Background — dark navy matching reference -->
    <rect width="512" height="512" fill="#141a2e" rx="64"></rect>

    <!-- Left bracket { — serif style, solid, intact -->
    <g filter="url(#glow)">
      <text x="135" y="256" font-family="Georgia, 'Times New Roman', serif" font-size="300" font-weight="400" fill="#e9556a" dominant-baseline="central" text-anchor="middle">{</text>
    </g>

    <!-- Right bracket fragments generated by script below -->
    <g id="fragments"><text x="340" y="256" font-family="Georgia, 'Times New Roman', serif" font-size="300" font-weight="400" fill="#e9556a" opacity="0.1" dominant-baseline="central" text-anchor="middle">}</text><rect x="333.0869507964862" y="189.27340321694388" width="14.77203148359993" height="10.318288167155483" fill="#e9556a" opacity="0.7049272433877584" rx="0" transform="rotate(42.82864929075756 340.47296653828613 194.4325473005216)"></rect><rect x="368.52981242476903" y="297.6812571469832" width="16.136515558760856" height="11.398550781141292" fill="#e9556a" opacity="0.5753096524976704" rx="0" transform="rotate(-22.7332691930855 376.59807020414945 303.38053253755385)"></rect><rect x="339.29959135772157" y="246.6564069806609" width="21.26634199976285" height="7.723321128507759" fill="#e9556a" opacity="0.5524034634476543" rx="0" transform="rotate(3.5108461224058827 349.932762357603 250.51806754491477)"></rect><rect x="383.8549712275153" y="212.7438926115645" width="8.221718002213965" height="6.506566145693216" fill="#e9556a" opacity="0.8661756610340325" rx="0" transform="rotate(44.41586181494215 387.9658302286223 215.9971756844111)"></rect><rect x="406.39510582222726" y="251.4010098660611" width="14.761397513915504" height="11.876464461850219" fill="#e9556a" opacity="0.7563780277298662" rx="0" transform="rotate(-13.34368506835014 413.77580457918503 257.3392420969862)"></rect><rect x="318.2131338951871" y="211.0447114692962" width="13.927022672224336" height="10.241174757592926" fill="#e9556a" opacity="0.8946104858045516" rx="0" transform="rotate(-39.17392828230464 325.1766452312993 216.16529884809268)"></rect><rect x="329.05523583832655" y="216.55502761746146" width="11.36132484272184" height="17.96143865397267" fill="#e9556a" opacity="0.5759846317004341" rx="0" transform="rotate(44.588689030887885 334.7358982596875 225.5357469444478)"></rect><rect x="390.71847548798246" y="195.36859002102494" width="22.59406852936096" height="23.73416696290214" fill="#e9556a" opacity="0.5118791924844864" rx="1" transform="rotate(-36.228495697131606 402.0155097526629 207.235673502476)"></rect><rect x="364.97992854189175" y="275.59397770675696" width="17.380845093811324" height="8.277600950690733" fill="#e9556a" opacity="0.639436385472974" rx="0" transform="rotate(43.52391106007803 373.6703510887974 279.7327781821023)"></rect><rect x="390.2504840763139" y="208.3866640517451" width="15.934823926507878" height="26.271451221905394" fill="#e9556a" opacity="0.8908923670607118" rx="0" transform="rotate(-2.9426458747790383 398.21789603956785 221.5223896626978)"></rect><rect x="374.6362245366287" y="323.621217051237" width="22.88186839170841" height="17.686961541737876" fill="#e9556a" opacity="0.6373787427960796" rx="0" transform="rotate(-17.33468731974004 386.07715873248287 332.46469782210596)"></rect><rect x="396.89786329434367" y="184.56308782684857" width="16.815744172230247" height="16.037258823419577" fill="#e9556a" opacity="0.7804162136653514" rx="0" transform="rotate(-44.14481503849142 405.30573538045877 192.58171723855835)"></rect><rect x="397.3791381030194" y="230.64528427778396" width="13.265389274463704" height="15.04143278069861" fill="#e9556a" opacity="0.6462654902349532" rx="0" transform="rotate(-23.069678721050582 404.01183274025124 238.16600066813325)"></rect><rect x="343.3751718396489" y="311.44038269855514" width="17.588639715494885" height="8.77163128311356" fill="#e9556a" opacity="0.5515216855572171" rx="0" transform="rotate(-8.971464724266651 352.1694916973963 315.82619834011194)"></rect><rect x="364.85751089509864" y="226.44868708169872" width="12.564940582292593" height="14.502225834178844" fill="#e9556a" opacity="0.7466163912073785" rx="1" transform="rotate(-16.73347482072817 371.13998118624494 233.69979999878814)"></rect><rect x="376.30773625246695" y="222.33084672978262" width="17.25519855472036" height="23.26035567059198" fill="#e9556a" opacity="0.6432551285919059" rx="1" transform="rotate(-33.55463602047164 384.9353355298271 233.96102456507862)"></rect><rect x="378.98345895008845" y="272.05644729035214" width="18.607563336662743" height="17.387443577585483" fill="#e9556a" opacity="0.6463983648207031" rx="1" transform="rotate(-0.9646016759633075 388.28724061841984 280.7501690791449)"></rect><rect x="375.7068238410888" y="214.98896554240164" width="14.347828602580275" height="8.389839914808906" fill="#e9556a" opacity="0.6637415394949455" rx="1" transform="rotate(20.615924427106943 382.88073814237896 219.1838854998061)"></rect><rect x="369.1430767532843" y="282.1567007058818" width="24.432044261336348" height="27.227433675540347" fill="#e9556a" opacity="0.5932589972825996" rx="0" transform="rotate(26.500028754351675 381.35909888395247 295.770417543652)"></rect><rect x="375.245758532068" y="263.34867409023224" width="14.196305787282206" height="19.82500393028604" fill="#e9556a" opacity="0.8569732351028236" rx="1" transform="rotate(15.713412207883508 382.3439114257091 273.26117605537524)"></rect><rect x="416.0662881129186" y="253.9111579480496" width="14.64441766992417" height="6.889506952319996" fill="#e9556a" opacity="0.5698876723972557" rx="0" transform="rotate(3.8591494452483674 423.3884969478807 257.3559114242096)"></rect><rect x="341.3611051461804" y="158.8319514048377" width="14.076481091825515" height="22.399423713981836" fill="#e9556a" opacity="0.8829731665472376" rx="0" transform="rotate(-7.713978166093109 348.39934569209316 170.0316632618286)"></rect><rect x="412.6487425822077" y="244.84068144698827" width="16.281997838188893" height="7.879370094220792" fill="#e9556a" opacity="0.5605122123195381" rx="0" transform="rotate(22.799346418026534 420.78974150130216 248.78036649409867)"></rect><rect x="370.93439474279677" y="230.90359612982883" width="22.683683538196462" height="16.595721238570157" fill="#e9556a" opacity="0.7036307961696903" rx="1" transform="rotate(13.44623174445994 382.276236511895 239.2014567491139)"></rect><rect x="376.4941687314769" y="325.6207439840087" width="11.839524631313758" height="7.088362599298527" fill="#e9556a" opacity="0.7952570652101455" rx="0" transform="rotate(-3.640064684972199 382.4139310471338 329.16492528365796)"></rect><rect x="366.2401148860469" y="241.33982049686043" width="16.975225043005878" height="14.075586199795634" fill="#e9556a" opacity="0.8383315568502674" rx="0" transform="rotate(-10.729391051330321 374.7277274075499 248.37761359675824)"></rect><rect x="319.2955347289026" y="330.4397210526271" width="12.69370396560696" height="19.545338835355516" fill="#e9556a" opacity="0.6873894528427112" rx="0" transform="rotate(-42.91443073559293 325.6423867117061 340.21239047030485)"></rect><rect x="360.4140720112247" y="350.86100038420284" width="16.12498656107345" height="16.571161286240056" fill="#e9556a" opacity="0.5099967137025654" rx="1" transform="rotate(34.804382058700725 368.4765652917614 359.1465810273229)"></rect><rect x="386.9494636533817" y="258.59547517045206" width="19.9656396061022" height="18.839273039642386" fill="#e9556a" opacity="0.5518539814519947" rx="0" transform="rotate(10.88990701171099 396.9322834564328 268.0151116902733)"></rect><rect x="360.6228124050888" y="264.87397700572075" width="15.956308219561496" height="27.599411985650384" fill="#e9556a" opacity="0.6618213976555604" rx="0" transform="rotate(42.206902470070354 368.6009665148695 278.6736829985459)"></rect><rect x="310.9118206169575" y="277.1044497212587" width="9.279748348183812" height="26.448374130971903" fill="#e9556a" opacity="0.8689354033996051" rx="0" transform="rotate(11.552806001413991 315.55169479104944 290.32863678674465)"></rect><rect x="347.55650145854145" y="212.71428665067907" width="13.326263164787676" height="11.50612405012647" fill="#e9556a" opacity="0.7924429591244286" rx="0" transform="rotate(-6.4353662363418245 354.21963304093526 218.4673486757423)"></rect><rect x="374.7910929812341" y="241.09325369316676" width="16.88037243433314" height="23.623838023107425" fill="#e9556a" opacity="0.6075079489999954" rx="1" transform="rotate(28.0049496809975 383.23127919840067 252.90517270472048)"></rect><rect x="361.591556485596" y="235.24678639188653" width="19.22295219880666" height="8.63707319769872" fill="#e9556a" opacity="0.6482031319980525" rx="1" transform="rotate(9.365047046153364 371.20303258499933 239.5653229907359)"></rect><rect x="376.66314100711236" y="321.5403265933264" width="8.50346577004691" height="8.137907662493134" fill="#e9556a" opacity="0.7782137439950434" rx="0" transform="rotate(-21.21511286414001 380.9148738921358 325.609280424573)"></rect><rect x="387.6593409715067" y="266.1067166600949" width="3.4795252862939026" height="4.697025284118954" fill="#e9556a" opacity="0.44930310825552" transform="rotate(-55.457090677440675 389.39910361465365 268.45522930215435)"></rect><rect x="341.0971009842518" y="339.40745538176395" width="6.906129773929224" height="15.901480648757984" fill="#e9556a" opacity="0.4298602599540207" transform="rotate(5.940430101910805 344.55016587121645 347.35819570614296)"></rect><rect x="301.2082499344013" y="416.96507431688025" width="7.070922338190305" height="8.002372766262166" fill="#e9556a" opacity="0.1888236344690012" transform="rotate(-34.20787564209098 304.7437111034964 420.96626070001133)"></rect><rect x="398.9184094620196" y="357.9337827172301" width="7.394358479671163" height="7.534271104685853" fill="#e9556a" opacity="0.3468579952274453" transform="rotate(-19.411768167937065 402.6155887018552 361.70091826957304)"></rect><rect x="303.4682656088337" y="369.0329654562867" width="4.615490919326238" height="6.737925623165275" fill="#e9556a" opacity="0.30383658757711735" transform="rotate(30.2192509594463 305.7760110684968 372.4019282678694)"></rect><rect x="290.1117868112842" y="282.55637919005994" width="14.040946114484719" height="9.334188379061711" fill="#e9556a" opacity="0.2857262764342318" transform="rotate(29.236837927828006 297.1322598685266 287.2234733795908)"></rect><rect x="388.6236998727238" y="247.0310017963419" width="16.613248238200036" height="15.822628816840728" fill="#e9556a" opacity="0.41896681346250486" transform="rotate(27.44455630306367 396.93032399182385 254.94231620476228)"></rect><rect x="442.87953312939095" y="251.87593760198212" width="13.24359278867751" height="7.856976587927853" fill="#e9556a" opacity="0.3701898066271315" transform="rotate(-38.560225916355954 449.5013295237297 255.80442589594605)"></rect><rect x="481.1263551052642" y="275.1836684389489" width="6.311425926452744" height="5.828284563850008" fill="#e9556a" opacity="0.2844413958068198" transform="rotate(7.327490405797716 484.2820680684906 278.09781072087395)"></rect><rect x="284.5561557415535" y="314.63172408748346" width="4.988247508181439" height="7.108775776291424" fill="#e9556a" opacity="0.26172214216000905" transform="rotate(34.97202670898849 287.0502794956442 318.18611197562916)"></rect><rect x="329.84697223551944" y="357.88347225530833" width="3.8122361894771055" height="3.670825052674433" fill="#e9556a" opacity="0.42186008212010384" transform="rotate(45.63874795364158 331.753090330258 359.71888478164556)"></rect><rect x="417.03197854914083" y="239.55399989904618" width="7.780678056734791" height="4.990445093188702" fill="#e9556a" opacity="0.34891731475063614" transform="rotate(-51.86624049761623 420.92231757750824 242.04922244564054)"></rect><rect x="271.70502918368595" y="289.70243999941295" width="2.97208759738841" height="3.178670392229909" fill="#e9556a" opacity="0.3320987300414919" transform="rotate(13.068907108655615 273.19107298238015 291.2917751955279)"></rect><rect x="439.114923868522" y="210.30716604229235" width="9.968509877580425" height="18.45801280925006" fill="#e9556a" opacity="0.3122937896229763" transform="rotate(7.844583311977136 444.0991788073122 219.5361724469174)"></rect><rect x="322.960209641191" y="165.24011144532224" width="7.5301045309813945" height="7.675405127913711" fill="#e9556a" opacity="0.37771867382732827" transform="rotate(30.646468294154143 326.7252619066817 169.0778140092791)"></rect><rect x="394.4248723910335" y="243.30768790105003" width="9.739682796558123" height="19.730558710714575" fill="#e9556a" opacity="0.41271577142272214" transform="rotate(45.431528475802175 399.29471378931254 253.17296725640733)"></rect><rect x="323.6837483085507" y="275.4072511940384" width="9.205727541230662" height="19.88944872876358" fill="#e9556a" opacity="0.5110956403129248" transform="rotate(-51.35395148366408 328.28661207916605 285.3519755584202)"></rect><rect x="258.4640057681424" y="385.33036011555777" width="5.838490089463118" height="4.410991009866815" fill="#e9556a" opacity="0.2514721011034682" transform="rotate(-43.1822554316289 261.38325081287394 387.5358556204912)"></rect><rect x="251.29056042401328" y="300.2642080631502" width="9.535958221836498" height="11.202545450438286" fill="#e9556a" opacity="0.2401633196447938" transform="rotate(30.992917498104703 256.0585395349315 305.8654807883693)"></rect><rect x="393.44187438084674" y="163.7453352968975" width="13.541778778238173" height="10.065735124680764" fill="#e9556a" opacity="0.38364599405392213" transform="rotate(15.595532914435267 400.2127637699658 168.7782028592379)"></rect><rect x="427.2117614816922" y="336.30215768634326" width="11.32255379815102" height="8.923975905459558" fill="#e9556a" opacity="0.33753667907774426" transform="rotate(-7.001975060907184 432.8730383807677 340.76414563907304)"></rect><rect x="474.25546971246183" y="299.35112057005864" width="5.225617524437399" height="2.996886237156125" fill="#e9556a" opacity="0.1842064816314758" transform="rotate(43.75202412891761 476.86827847468055 300.8495636886367)"></rect><rect x="352.1889905466336" y="228.5779715278216" width="9.747524979491919" height="5.426677301274568" fill="#e9556a" opacity="0.42035895245532323" transform="rotate(5.8283239909579665 357.06275303637955 231.2913101784589)"></rect><rect x="462.73456320276796" y="213.42619994454367" width="13.799534868644376" height="12.845304457795354" fill="#e9556a" opacity="0.2915178916992902" transform="rotate(-33.899272910272366 469.63433063709016 219.84885217344134)"></rect><rect x="400.17155985455696" y="169.97024607194268" width="16.11430553722171" height="7.775767385178411" fill="#e9556a" opacity="0.3347152883099131" transform="rotate(-47.257284516122795 408.22871262316784 173.8581297645319)"></rect><rect x="328.6122269162813" y="334.3257194542036" width="14.964969380966233" height="17.677402755138154" fill="#e9556a" opacity="0.38422401593429756" transform="rotate(-33.049664037790926 336.0947116067644 343.16442083177265)"></rect><rect x="309.2710487319286" y="278.87432036885383" width="6.361466222935561" height="4.812125640374935" fill="#e9556a" opacity="0.3884963507760366" transform="rotate(19.10356190013865 312.45178184339636 281.2803831890413)"></rect><rect x="310.0298078398806" y="315.5919554419019" width="8.310091679266346" height="11.267545894484565" fill="#e9556a" opacity="0.48528891757742776" transform="rotate(-49.413805319654664 314.18485367951376 321.2257283891442)"></rect><rect x="354.9171265810715" y="178.04610972279025" width="7.3779377442995004" height="7.437854058305517" fill="#e9556a" opacity="0.4313755190661595" transform="rotate(-11.7321827596669 358.60609545322126 181.765036751943)"></rect><rect x="323.1490749813331" y="288.1100492292646" width="8.175757127305594" height="7.835874244712046" fill="#e9556a" opacity="0.3649505164261145" transform="rotate(41.59671071059848 327.2369535449859 292.0279863516206)"></rect><rect x="386.4289566175649" y="294.1559103149898" width="10.05213125629615" height="9.327014995562969" fill="#e9556a" opacity="0.34986465372571274" transform="rotate(-25.961285329405815 391.45502224571294 298.8194178127713)"></rect><rect x="352.38218231347787" y="340.152606862079" width="11.245819193881246" height="15.272475110972652" fill="#e9556a" opacity="0.4645380015602579" transform="rotate(28.75901161169587 358.0050919104185 347.7888444175653)"></rect><rect x="415.36713609765746" y="119.8613042569475" width="7.222879505944622" height="8.189217689140284" fill="#e9556a" opacity="0.342072323208775" transform="rotate(-13.557412695864874 418.9785758506298 123.95591310151765)"></rect><rect x="314.8158399202408" y="435.7175100148935" width="10.499818860935262" height="6.7492410390568205" fill="#e9556a" opacity="0.1519957604677663" transform="rotate(26.272409393578954 320.0657493507085 439.0921305344219)"></rect><rect x="320.94546941119745" y="211.37499263413304" width="8.259810507080068" height="9.815175901586061" fill="#e9556a" opacity="0.34568787855061667" transform="rotate(7.370802493472954 325.07537466473747 216.28258058492608)"></rect><rect x="317.3305048658976" y="402.04345548855963" width="9.632576108162517" height="10.60501813049886" fill="#e9556a" opacity="0.27120202526805487" transform="rotate(-7.728298319377142 322.14679291997885 407.34596455380904)"></rect><rect x="443.2735728325946" y="178.14364519110737" width="2.7693741919740544" height="4.03738075694276" fill="#e9556a" opacity="0.16249799380893729" transform="rotate(29.334619198615947 444.65825992858163 180.16233556957874)"></rect><rect x="359.90572511473067" y="368.43972754740594" width="10.483626976064116" height="12.610751728336894" fill="#e9556a" opacity="0.3288397779140673" transform="rotate(-53.44709839366707 365.1475386027627 374.7451034115744)"></rect><rect x="271.05689638239915" y="321.4665100951514" width="10.668389144275778" height="6.098261513170864" fill="#e9556a" opacity="0.25383588563929255" transform="rotate(54.90971607850386 276.39109095453705 324.51564085173686)"></rect><rect x="396.74754576257646" y="222.69789950801467" width="8.799510433656529" height="15.921559473549857" fill="#e9556a" opacity="0.264324118325039" transform="rotate(13.51956069167683 401.14730097940475 230.6586792447896)"></rect><rect x="335.57825749326213" y="270.48330582661004" width="8.237692344357722" height="8.879717252033501" fill="#e9556a" opacity="0.41472091877886536" transform="rotate(-54.32323151935042 339.697103665441 274.9231644526268)"></rect><rect x="445.2592142161701" y="138.73840724114208" width="10.511952170745065" height="8.927119170226286" fill="#e9556a" opacity="0.29945633582512676" transform="rotate(33.553853898101416 450.51519030154265 143.20196682625522)"></rect><rect x="356.2139871280311" y="150.4806417024103" width="2.4638295804804202" height="2.2755877134508578" fill="#e9556a" opacity="0.28274035592857366" transform="rotate(18.117840531336995 357.44590191827126 151.61843555913575)"></rect><rect x="336.57261173842187" y="297.39858495025686" width="4.473146366510658" height="9.143106460188145" fill="#e9556a" opacity="0.43405113008427815" transform="rotate(-20.450993739278516 338.8091849216772 301.97013818035094)"></rect><rect x="268.85426432757316" y="272.6467775288688" width="5.271346830772166" height="6.102229091431372" fill="#e9556a" opacity="0.37728900876934124" transform="rotate(-50.27072069713414 271.4899377429592 275.6978920745845)"></rect><rect x="415.6632185002666" y="202.25045156031862" width="5.458267414812392" height="4.349177854837376" fill="#e9556a" opacity="0.31183989132540824" transform="rotate(-6.278449122923632 418.39235220767284 204.4250404877373)"></rect><rect x="299.9403478787174" y="315.2257158543841" width="12.126975025828411" height="9.088526015951953" fill="#e9556a" opacity="0.41908194502606544" transform="rotate(-11.199712637439239 306.0038353916316 319.76997886236006)"></rect><rect x="406.295069888224" y="265.85576362078206" width="10.11836017891021" height="6.660838531591569" fill="#e9556a" opacity="0.38906681472092786" transform="rotate(20.5595387707276 411.3542499776791 269.18618288657785)"></rect><rect x="310.0181017792765" y="310.7903334693344" width="7.552927878473001" height="4.030076130181938" fill="#e9556a" opacity="0.25110666932024234" transform="rotate(25.79997929083183 313.794565718513 312.8053715344254)"></rect><rect x="393.20784091326937" y="225.98732565200967" width="7.50968504309324" height="4.977065501860696" fill="#e9556a" opacity="0.44385958986037655" transform="rotate(-36.67733820931862 396.962683434816 228.47585840294002)"></rect><rect x="437.5598869887489" y="253.21644691598487" width="10.792894278117661" height="7.411121827856829" fill="#e9556a" opacity="0.3501520042956982" transform="rotate(-14.1583560938753 442.9563341278077 256.9220078299133)"></rect><rect x="279.368193257" y="392.210764779641" width="10.85006637043309" height="10.90190171524171" fill="#e9556a" opacity="0.21076575056652141" transform="rotate(24.282199295369065 284.7932264422165 397.66171563726186)"></rect><rect x="444.2807746560659" y="144.80671901868706" width="9.883794517167633" height="10.368743477616976" fill="#e9556a" opacity="0.30096617624641014" transform="rotate(53.97055500837535 449.2226719146497 149.99109075749556)"></rect><rect x="411.13072862442397" y="206.79280871319145" width="4.996612115100793" height="4.0255360652057215" fill="#e9556a" opacity="0.32084732842770874" transform="rotate(-21.724967584817186 413.62903468197436 208.8055767457943)"></rect><rect x="297.6334360085097" y="284.48394455514455" width="8.859612021627367" height="6.28508721961017" fill="#e9556a" opacity="0.4281576046834636" transform="rotate(-50.621946077152124 302.0632420193234 287.62648816494965)"></rect><rect x="371.236988802064" y="385.8350073942519" width="8.759777564803343" height="4.264607302580194" fill="#e9556a" opacity="0.4482265921617316" transform="rotate(-36.64598229185025 375.61687758446567 387.967311045542)"></rect><rect x="342.04427785379755" y="85.92141204014064" width="14.828103869464591" height="11.802241549788299" fill="#e9556a" opacity="0.2256304358002073" transform="rotate(-54.000092108733995 349.45832978852985 91.82253281503479)"></rect><rect x="379.6785000530692" y="283.69230892796884" width="12.44740901815484" height="15.028959192744399" fill="#e9556a" opacity="0.48078270072852386" transform="rotate(-8.187667293561464 385.9022045621466 291.20678852434105)"></rect><rect x="326.6029967715275" y="245.11950432363665" width="3.249641734035214" height="3.5141962411171823" fill="#e9556a" opacity="0.5402294969290367" transform="rotate(31.283371062615593 328.2278176385451 246.87660244419524)"></rect><rect x="481.2026466586971" y="283.57679576716106" width="4.072582292991959" height="3.3162874633634467" fill="#e9556a" opacity="0.1306177734955696" transform="rotate(-16.839321626741125 483.2389378051931 285.2349394988428)"></rect><rect x="340.6528705221364" y="173.45499210692685" width="8.478102807137002" height="9.41417396540817" fill="#e9556a" opacity="0.1624657370324553" transform="rotate(12.613603022235257 344.89192192570493 178.16207908963094)"></rect><rect x="390.73387694199243" y="282.48993975332075" width="3.9370139773030606" height="2.090598363903318" fill="#e9556a" opacity="0.3697264248214586" transform="rotate(-21.677123402094992 392.702383930644 283.5352389352724)"></rect><rect x="382.08796614865594" y="209.75028487497735" width="6.797101092660689" height="9.629042953429778" fill="#e9556a" opacity="0.372120100438052" transform="rotate(-53.12282569386197 385.4865166949863 214.56480635169225)"></rect><rect x="319.4186314005304" y="229.92228567262998" width="10.171429092828287" height="8.407597258876404" fill="#e9556a" opacity="0.387858654797477" transform="rotate(-9.582992433376143 324.5043459469445 234.1260843020682)"></rect><rect x="333.1082516727564" y="377.16882466495224" width="3.2378069126527764" height="5.856681489356202" fill="#e9556a" opacity="0.29875180041858274" transform="rotate(41.914837016684395 334.7271551290828 380.09716540963035)"></rect><rect x="378.07801664675304" y="197.26548354688157" width="3.271633017898506" height="8.909585052163855" fill="#e9556a" opacity="0.4071307257133746" transform="rotate(-33.917624919636935 379.7138331557023 201.7202760729635)"></rect><rect x="405.9941916607658" y="168.94297453812027" width="10.583540638428" height="6.495950941714359" fill="#e9556a" opacity="0.3456392400229133" transform="rotate(-33.361005137376964 411.2859619799798 172.19095000897744)"></rect><rect x="399.3030248665834" y="143.13883812700115" width="12.835166205486788" height="15.278873653878406" fill="#e9556a" opacity="0.29649541139871866" transform="rotate(56.50491546676723 405.7206079693268 150.77827495394035)"></rect><rect x="430.2725992001666" y="243.20023931664147" width="9.633175627262226" height="6.0988580626127336" fill="#e9556a" opacity="0.36211047128040963" transform="rotate(-16.098723596007897 435.0891870137977 246.24966834794785)"></rect><rect x="419.79407219375076" y="274.0560103577232" width="11.553795251957839" height="12.85694827289707" fill="#e9556a" opacity="0.2552728420829873" transform="rotate(29.664504364907984 425.57096981972967 280.48448449417174)"></rect><rect x="421.8540797441298" y="178.76594623745413" width="11.552604336039177" height="10.960547298861215" fill="#e9556a" opacity="0.3364128723494369" transform="rotate(-15.73510808671597 427.6303819121494 184.24621988688475)"></rect><rect x="339.97775381104594" y="148.74475251958734" width="6.59276253166075" height="8.315261016826286" fill="#e9556a" opacity="0.5178043124265723" transform="rotate(-12.920024224054078 343.2741350768763 152.9023830280005)"></rect><rect x="316.86403936753555" y="151.4704830478511" width="14.355900024899546" height="8.080755935880015" fill="#e9556a" opacity="0.43779248469772264" transform="rotate(17.32470311099882 324.04198937998535 155.5108610157911)"></rect><rect x="355.95506061658773" y="278.0229456687386" width="5.554338787388396" height="5.387731374159419" fill="#e9556a" opacity="0.44663885388466606" transform="rotate(-59.1454973254099 358.7322300102819 280.7168113558183)"></rect><rect x="471.13421254043277" y="298.1202663985436" width="10.33063739298029" height="10.971367801639351" fill="#e9556a" opacity="0.2938308264449383" transform="rotate(56.8364894747904 476.2995312369229 303.60595029936326)"></rect><rect x="393.12356132670624" y="332.722144329218" width="5.047109831559959" height="4.2993700787632445" fill="#e9556a" opacity="0.5004347542352737" transform="rotate(-53.35390129748448 395.6471162424862 334.8718293685996)"></rect><rect x="389.30113016037416" y="156.02979808280102" width="5.73853306975098" height="5.7153580744519195" fill="#e9556a" opacity="0.2732051808511729" transform="rotate(41.30858720341166 392.1703966952496 158.88747712002697)"></rect><rect x="388.3680810340699" y="193.60706868008037" width="9.247197704475253" height="4.468481342762064" fill="#e9556a" opacity="0.36062771866559673" transform="rotate(42.65723821830808 392.99167988630757 195.8413093514614)"></rect><rect x="414.4645380281536" y="208.56875042609542" width="9.505535662663904" height="10.676081769613202" fill="#e9556a" opacity="0.4112275803696892" transform="rotate(9.019669419629341 419.2173058594855 213.906791310902)"></rect><rect x="392.09280410131527" y="209.69708131977012" width="9.007232332345197" height="13.423447634555293" fill="#e9556a" opacity="0.364867887341888" transform="rotate(22.113511879981264 396.5964202674879 216.40880513704778)"></rect><rect x="219.9823649446595" y="220.58242179322036" width="7.473655171447273" height="6.698852883947123" fill="#e9556a" opacity="0.25649664289620555" transform="rotate(89.68236715052387 223.71919253038314 223.9318482351939)"></rect><rect x="393.34185262002586" y="372.5194057372993" width="3.5636474124917985" height="1.5309722689377374" fill="#e9556a" opacity="0.23186457831646434" transform="rotate(11.50958318799249 395.1236763262718 373.28489187176814)"></rect><rect x="390.7506136152109" y="237.45500123549456" width="7.18359606768172" height="3.5430544866344427" fill="#e9556a" opacity="0.3425993601982577" transform="rotate(116.02889125981783 394.34241164905177 239.2265284788118)"></rect><rect x="355.47449841036877" y="116.55922439631286" width="2.467143672735963" height="2.067041283676434" fill="#e9556a" opacity="0.09411032283232833" transform="rotate(76.49193728179296 356.7080702467367 117.59274503815108)"></rect><rect x="161.87491207554274" y="211.24952401323168" width="3.450268123974217" height="2.6021276460305023" fill="#e9556a" opacity="0.0662890771210167" transform="rotate(326.1827917053284 163.60004613752986 212.55058783624693)"></rect><rect x="417.04918352390433" y="139.28525748883692" width="5.8712253355752795" height="6.7982644277530895" fill="#e9556a" opacity="0.209526054270737" transform="rotate(156.10413759765407 419.984796191692 142.68438970271347)"></rect><rect x="410.5603117659977" y="186.49330443787662" width="4.404265810923775" height="4.401613970698042" fill="#e9556a" opacity="0.11246950853044756" transform="rotate(216.1728096642405 412.7624446714596 188.69411142322565)"></rect><rect x="353.8779355826113" y="76.27369681101018" width="3.4006068480203893" height="2.266751429278936" fill="#e9556a" opacity="0.19881516368391797" transform="rotate(128.73987475817086 355.5782390066215 77.40707252564965)"></rect><rect x="402.0864198511611" y="291.2787147398852" width="7.119336869157542" height="3.507232079744526" fill="#e9556a" opacity="0.28105036086672325" transform="rotate(49.80942491898752 405.6460882857399 293.03233077975744)"></rect><rect x="351.90562675163216" y="21.568020388408414" width="7.4790936491820466" height="8.104307787386482" fill="#e9556a" opacity="0.13861137940753293" transform="rotate(170.82103558388587 355.64517357622316 25.620174282101654)"></rect><rect x="410.67286197062356" y="177.69802927383012" width="3.104270617991812" height="1.8527431855093186" fill="#e9556a" opacity="0.24532613112569635" transform="rotate(106.83725650740661 412.22499727961946 178.62440086658478)"></rect><rect x="218.92753711916498" y="215.4281632265477" width="7.988965551363753" height="3.7750757118263696" fill="#e9556a" opacity="0.0784658090750846" transform="rotate(322.4339199636289 222.92201989484687 217.3157010824609)"></rect><rect x="268.1926857681195" y="271.1746231391396" width="3.3674026873742244" height="2.216633990440031" fill="#e9556a" opacity="0.2620398526410513" transform="rotate(275.95818949675106 269.8763871118066 272.28294013435965)"></rect><rect x="232.57410030573786" y="329.90390426290384" width="2.3680723739639262" height="1.5" fill="#e9556a" opacity="0.19479984792663074" transform="rotate(329.1288695713174 233.7581364927198 330.4078915095161)"></rect><rect x="531.3564862985335" y="334.4755067906421" width="7.550854095048669" height="8.260408340612411" fill="#e9556a" opacity="0.07463138290749557" transform="rotate(159.69254383803 535.1319133460578 338.60571096094833)"></rect><rect x="393.8710482788378" y="322.6834742430601" width="2.116597319076116" height="1.8770384956008412" fill="#e9556a" opacity="0.27436243629188145" transform="rotate(164.3254969847973 394.9293469383759 323.6219934908605)"></rect><rect x="527.0601677639338" y="273.37640770958495" width="5.987561684096028" height="6.346196352647993" fill="#e9556a" opacity="0.06097001788815262" transform="rotate(217.07309010302328 530.0539486059819 276.54950588590896)"></rect><rect x="482.3534766067301" y="207.9173871371176" width="6.238552983030003" height="6.953895234496949" fill="#e9556a" opacity="0.1693927119679274" transform="rotate(76.86557268577887 485.4727530982451 211.39433475436607)"></rect><rect x="496.1844121118476" y="274.7498649771296" width="3.7598090058936777" height="3.0629720480303257" fill="#e9556a" opacity="0.1950335301923428" transform="rotate(187.93554864262023 498.06431661479445 276.2813510011448)"></rect><rect x="476.3851617894127" y="177.9250202601415" width="6.354405561627077" height="4.6550462606460306" fill="#e9556a" opacity="0.1898200860157948" transform="rotate(316.05561652968436 479.56236457022624 180.25254339046452)"></rect><rect x="331.54868002620395" y="127.68774005348857" width="5.186118283861372" height="5.594090749606665" fill="#e9556a" opacity="0.09858296588855056" transform="rotate(334.63162119250353 334.1417391681346 130.4847854282919)"></rect><rect x="397.5964377481388" y="404.8144971193599" width="3.5391541391327763" height="2.625399470238554" fill="#e9556a" opacity="0.11804636386401758" transform="rotate(42.05469882211401 399.36601481770515 406.12719685447917)"></rect><rect x="500.98705262942855" y="235.27235607323675" width="3.112052178528184" height="1.5" fill="#e9556a" opacity="0.1422865467159137" transform="rotate(1.844476350510715 502.54307871869264 235.94890885647007)"></rect><rect x="278.55870729892933" y="269.09619253134474" width="6.849126017116535" height="3.8911891035955404" fill="#e9556a" opacity="0.26738286547044865" transform="rotate(67.04228123046565 281.9832703074876 271.04178708314254)"></rect><rect x="385.8460004171398" y="389.9615166473491" width="5.585982895263463" height="6.416075365612482" fill="#e9556a" opacity="0.1171968403546027" transform="rotate(74.95725355807564 388.6389918647715 393.16955433015534)"></rect><rect x="321.8427229043172" y="75.1827528363293" width="6.352821203112985" height="7.509848433007447" fill="#e9556a" opacity="0.13873072419035895" transform="rotate(192.1091946177693 325.0191335058737 78.93767705283302)"></rect><rect x="361.076995333846" y="98.41004391039664" width="6.735280985355042" height="4.371216094530177" fill="#e9556a" opacity="0.10280642231150194" transform="rotate(85.38785698143201 364.44463582652355 100.59565195766173)"></rect><rect x="423.37808378079006" y="177.81882871077386" width="4.076553675381724" height="4.151356881149692" fill="#e9556a" opacity="0.21349344426977732" transform="rotate(270.91906910339327 425.41636061848095 179.8945071513487)"></rect><rect x="425.9154257889679" y="396.65296017962544" width="2.869374151746451" height="1.7489288443381645" fill="#e9556a" opacity="0.20278102688400274" transform="rotate(239.3245517645611 427.35011286484115 397.5274246017945)"></rect><rect x="286.6198935723356" y="327.3585510166246" width="6.434068815053473" height="5.485751072439626" fill="#e9556a" opacity="0.2703744097844921" transform="rotate(276.92187853014184 289.83692797986237 330.1014265528444)"></rect><rect x="311.19585795312196" y="357.22623115542376" width="3.138124756113684" height="1.5" fill="#e9556a" opacity="0.2693694596999379" transform="rotate(112.57663227272064 312.7649203311788 357.95067269535156)"></rect><rect x="360.7773692043059" y="126.87863842055734" width="2.9738703160425044" height="3.5045680713754552" fill="#e9556a" opacity="0.2388874104581984" transform="rotate(121.0689078462631 362.26430436232715 128.63092245624506)"></rect><rect x="357.92888501037174" y="363.6876596781474" width="5.300702554779454" height="5.588946404592559" fill="#e9556a" opacity="0.15489411405760675" transform="rotate(242.1757511804699 360.5792362877615 366.48213288044366)"></rect><rect x="428.20579467961977" y="303.47490784452754" width="3.5020706828227595" height="2.9426574774113767" fill="#e9556a" opacity="0.2606508808387534" transform="rotate(128.75754213368404 429.9568300210311 304.9462365832332)"></rect><rect x="387.4986137709848" y="238.7643355413648" width="7.77121957380847" height="4.027954696683337" fill="#e9556a" opacity="0.2322499192521454" transform="rotate(248.7132956873222 391.384223557889 240.77831288970646)"></rect><rect x="454.8487024366055" y="270.0343024036289" width="4.807464584152896" height="2.600688255935322" fill="#e9556a" opacity="0.2387481647187309" transform="rotate(208.03624898569484 457.2524347286819 271.33464653159655)"></rect><rect x="417.3698014785398" y="344.2437229173817" width="2.9612046540534145" height="2.3557846551956616" fill="#e9556a" opacity="0.15977459451148673" transform="rotate(359.6218279747394 418.8504038055665 345.42161524497953)"></rect><rect x="327.08920466162067" y="252.47801822602187" width="4.849456653394483" height="5.055056546110214" fill="#e9556a" opacity="0.25013857960854496" transform="rotate(340.9388025016239 329.5139329883179 255.00554649907698)"></rect><rect x="509.8123560716067" y="179.0145231028876" width="3.97408920897827" height="3.9832748116242485" fill="#e9556a" opacity="0.158200646169185" transform="rotate(291.26098804700234 511.79940067609584 181.00616050869974)"></rect><rect x="234.22647686456017" y="296.6013835414862" width="4.559296128600508" height="1.8784503022029222" fill="#e9556a" opacity="0.14580836584155202" transform="rotate(71.46987171446432 236.50612492886043 297.5406086925877)"></rect><rect x="214.3193615923353" y="381.35331218500806" width="4.142251549354872" height="4.319976236876458" fill="#e9556a" opacity="0.10658863601361024" transform="rotate(229.47918740542568 216.39048736701272 383.5133003034463)"></rect><rect x="410.01863728779716" y="430.1401568116762" width="6.123859786486188" height="5.479982041261621" fill="#e9556a" opacity="0.19884298650077337" transform="rotate(121.72636488532945 413.08056718104024 432.880147832307)"></rect><rect x="453.5145148714408" y="437.84212841263184" width="2.4777814925079147" height="1.6761513150713754" fill="#e9556a" opacity="0.13271570301201976" transform="rotate(123.82589165299473 454.75340561769474 438.6802040701675)"></rect><rect x="456.7822304778593" y="358.78311346264087" width="2.3448139784600652" height="2.5913433363892446" fill="#e9556a" opacity="0.11888128637259598" transform="rotate(25.451251187106248 457.9546374670893 360.0787851308355)"></rect><rect x="454.6796871476808" y="433.6995677798986" width="7.244678963555339" height="4.172298009689449" fill="#e9556a" opacity="0.11658471091270814" transform="rotate(249.32138264613292 458.30202662945845 435.78571678474333)"></rect><rect x="158.41332527323056" y="302.42396116054266" width="5.847281314361506" height="6.437506259647518" fill="#e9556a" opacity="0.11967825786955377" transform="rotate(314.83881799263827 161.3369659304113 305.6427142903664)"></rect><rect x="231.15674638563198" y="268.65410078226574" width="4.054915272656324" height="2.141529179966533" fill="#e9556a" opacity="0.19632358984237802" transform="rotate(319.04986469030837 233.18420402196014 269.724865372249)"></rect><rect x="445.8649718604433" y="161.15441188635683" width="2.4576299499988696" height="2.748144627052979" fill="#e9556a" opacity="0.2780332041912328" transform="rotate(244.54729333731683 447.0937868354427 162.5284841998833)"></rect><rect x="402.96774865823863" y="131.62333338956657" width="2.4049480540700947" height="1.5910959180718398" fill="#e9556a" opacity="0.21860511537159688" transform="rotate(264.33092656747016 404.1702226852737 132.4188813486025)"></rect><rect x="382.0637400137579" y="385.42757655487213" width="6.17047892332565" height="3.4877721632764436" fill="#e9556a" opacity="0.20135275751635878" transform="rotate(138.93989168989467 385.14897947542073 387.17146263651034)"></rect><rect x="341.1073409851035" y="49.438480560921775" width="6.050793375843574" height="7.006228012817458" fill="#e9556a" opacity="0.09978687042630108" transform="rotate(209.3378490811856 344.1327376730253 52.941594567330505)"></rect><rect x="381.4520732453754" y="301.83347657831007" width="3.570138349928958" height="2.0541372957380477" fill="#e9556a" opacity="0.1791184119476606" transform="rotate(81.63788536639785 383.23714242033986 302.8605452261791)"></rect><rect x="266.0613502953232" y="171.98476569894711" width="4.025402035576013" height="3.183831050957377" fill="#e9556a" opacity="0.27596793712884854" transform="rotate(19.466466707860334 268.0740513131112 173.5766812244258)"></rect><rect x="324.27348396216274" y="446.2004342854846" width="7.867477690739314" height="8.07470522329457" fill="#e9556a" opacity="0.05945639476081237" transform="rotate(221.61196175106426 328.2072228075324 450.2377868971319)"></rect><rect x="332.57286478888255" y="316.8281271210658" width="5.0897212787949115" height="5.392072918062868" fill="#e9556a" opacity="0.3052912372765017" transform="rotate(94.09146028295693 335.11772542828 319.52416358009725)"></rect><rect x="286.3785941542167" y="245.7174629526511" width="7.066444299680388" height="8.224723772676846" fill="#e9556a" opacity="0.25083327432839087" transform="rotate(305.8108888500421 289.9118163040569 249.8298248389895)"></rect><rect x="205.52523812410448" y="173.45201880380446" width="2.6271483873143553" height="2.621174459379923" fill="#e9556a" opacity="0.154943639162387" transform="rotate(171.99425526521833 206.83881231776166 174.76260603349442)"></rect><rect x="394.778130727383" y="202.12346155022593" width="3.0825167629320718" height="1.9971562809943244" fill="#e9556a" opacity="0.236032567875524" transform="rotate(9.354657404755548 396.319389108849 203.12203969072308)"></rect><rect x="497.245103707907" y="361.2090134117554" width="7.290238753561973" height="7.817790675590087" fill="#e9556a" opacity="0.14813774478142924" transform="rotate(190.91207745993142 500.890223084688 365.11790874955045)"></rect><rect x="257.1499061450012" y="178.5342535338988" width="3.709947952865599" height="4.004391094495034" fill="#e9556a" opacity="0.1929676325093853" transform="rotate(225.76501540176804 259.004880121434 180.53644908114632)"></rect><rect x="367.20975090314494" y="398.7415789732834" width="2.4194156827495505" height="2.6192206983637156" fill="#e9556a" opacity="0.18728345363372412" transform="rotate(85.15105933190839 368.4194587445197 400.0511893224653)"></rect><rect x="420.83344209725294" y="101.89090736917045" width="7.343401857346018" height="7.39726954275623" fill="#e9556a" opacity="0.20058646411882872" transform="rotate(129.65273106920196 424.505143025926 105.58954214054856)"></rect><rect x="440.69848305207523" y="191.11036603587627" width="3.2387227682577087" height="3.5468618080442953" fill="#e9556a" opacity="0.1973919839147392" transform="rotate(24.333932764983704 442.3178444362041 192.88379693989842)"></rect><rect x="288.0436110222999" y="358.31450213307744" width="7.30309108053478" height="7.840394631170128" fill="#e9556a" opacity="0.2965802089371234" transform="rotate(326.62446150864685 291.69515656256726 362.2346994486625)"></rect><rect x="177.50731903082618" y="243.2653617144515" width="3.8715976885853323" height="3.583732555251032" fill="#e9556a" opacity="0.05" transform="rotate(66.65797449027095 179.44311787511884 245.057227992077)"></rect><rect x="221.6618970979288" y="245.07524574379758" width="3.5668974898601404" height="1.829158336222011" fill="#e9556a" opacity="0.21568275695048994" transform="rotate(36.34308945217313 223.44534584285887 245.98982491190858)"></rect><rect x="462.52958070195933" y="232.23686969946152" width="7.328601897381526" height="4.702118228092126" fill="#e9556a" opacity="0.25236387044154385" transform="rotate(347.08314656609815 466.1938816506501 234.58792881350757)"></rect><rect x="390.523488016136" y="173.94746576388985" width="6.610124119841551" height="6.48328216339064" fill="#e9556a" opacity="0.19184085632367986" transform="rotate(40.38888541999687 393.8285500760568 177.18910684558517)"></rect><rect x="328.55444535250405" y="119.55064152057088" width="5.799983022641383" height="4.109992888886851" fill="#e9556a" opacity="0.1240642638942526" transform="rotate(270.9838322135544 331.45443686382475 121.60563796501431)"></rect><rect x="376.65380041420826" y="173.34736465982488" width="7.942833584706687" height="8.68846249682177" fill="#e9556a" opacity="0.3145545917657875" transform="rotate(156.3350431045215 380.6252172065616 177.69159590823577)"></rect><rect x="242.30398701322386" y="186.31504580201732" width="7.27253127064208" height="4.29861450575821" fill="#e9556a" opacity="0.23784274709776174" transform="rotate(92.09449213561345 245.9402526485449 188.46435305489643)"></rect><rect x="319.80547314702613" y="349.2317812289583" width="2.1880133162196787" height="2.0245849723516898" fill="#e9556a" opacity="0.3208249252511501" transform="rotate(18.868169811958527 320.89947980513597 350.24407371513416)"></rect><rect x="182.11224141418228" y="316.5763182444823" width="2.1265503233887957" height="1.6817568600763388" fill="#e9556a" opacity="0.19272610583812677" transform="rotate(6.616832281750083 183.17551657587669 317.4171966745205)"></rect><rect x="524.2719249420854" y="341.37378542305737" width="4.063539482682729" height="2.659226533982222" fill="#e9556a" opacity="0.06700242691337685" transform="rotate(311.5281020251699 526.3036946834268 342.70339869004846)"></rect><rect x="355.74036041006497" y="229.97469285225014" width="6.616682120886018" height="3.1551919812420275" fill="#e9556a" opacity="0.23379727259161023" transform="rotate(219.06755574935468 359.048701470508 231.55228884287115)"></rect><rect x="295.20132318555886" y="457.14997238567446" width="7.380582932094383" height="8.322679615571788" fill="#e9556a" opacity="0.07484215795140907" transform="rotate(330.51066402835335 298.89161465160606 461.31131219346037)"></rect><rect x="473.8267246617069" y="136.78755936199357" width="3.70561134615243" height="3.562275722101029" fill="#e9556a" opacity="0.14771857182340045" transform="rotate(222.0979729956472 475.6795303347831 138.5686972230441)"></rect><rect x="327.26993573070877" y="108.2606807909579" width="4.515082136967724" height="2.399300209270563" fill="#e9556a" opacity="0.21965035953469175" transform="rotate(173.72458501426715 329.52747679919264 109.46033089559319)"></rect><rect x="507.59518311294903" y="316.9694341985661" width="3.6205117020851523" height="2.3847957920391374" fill="#e9556a" opacity="0.10961340104701914" transform="rotate(273.23503002209355 509.4054389639916 318.16183209458563)"></rect><rect x="530.4485934615267" y="240.57728509066368" width="7.694113463020937" height="4.067593611334577" fill="#e9556a" opacity="0.08801562756109538" transform="rotate(18.065477022000344 534.2956501930372 242.61108189633097)"></rect><rect x="397.07081388204716" y="228.56247772044043" width="7.49669256969201" height="3.910293649672258" fill="#e9556a" opacity="0.2529269984878113" transform="rotate(258.0120281959009 400.81916016689314 230.51762454527656)"></rect><rect x="373.012604562412" y="176.6937447911649" width="4.821573442230734" height="4.618966793741479" fill="#e9556a" opacity="0.22641295699382705" transform="rotate(159.9548184498934 375.42339128352734 179.00322818803565)"></rect><rect x="458.53788593611046" y="134.5264526134175" width="2.097557524264584" height="1.5" fill="#e9556a" opacity="0.1708691276001233" transform="rotate(357.50771568972044 459.58666469824277 135.17659900232317)"></rect><rect x="396.8980176573863" y="257.9667848288936" width="6.404630196469198" height="3.091055619731524" fill="#e9556a" opacity="0.3207231988734257" transform="rotate(330.03333878239306 400.10033275562085 259.51231263875934)"></rect><rect x="460.605637969016" y="225.36969142623727" width="5.187932910019501" height="5.940818667608901" fill="#e9556a" opacity="0.1541712236002297" transform="rotate(33.18318169246576 463.1996044240258 228.3401007600417)"></rect><rect x="354.4584269477257" y="309.66243014989504" width="3.8770239538871794" height="4.2086868017782395" fill="#e9556a" opacity="0.18424493654216037" transform="rotate(165.1947323629608 356.39693892466926 311.76677355078414)"></rect><rect x="189.17165686054864" y="304.5965982411462" width="7.201456106827341" height="3.718627841535519" fill="#e9556a" opacity="0.14030592688643162" transform="rotate(296.3174261228728 192.7723849139623 306.45591216191394)"></rect><rect x="422.5518472850871" y="319.0959053354497" width="6.216700973090111" height="5.879552473912462" fill="#e9556a" opacity="0.248935473603436" transform="rotate(319.9302808567557 425.66019777163217 322.0356815724059)"></rect><rect x="276.4197250204377" y="278.0247492300821" width="7.882872402613458" height="8.867149633156052" fill="#e9556a" opacity="0.3249570842720614" transform="rotate(165.80787914144244 280.3611612217444 282.4583240466601)"></rect><rect x="351.8348499549355" y="431.7701570091581" width="7.311998481541871" height="7.563998489633715" fill="#e9556a" opacity="0.06518672401106446" transform="rotate(105.66972025934128 355.49084919570646 435.55215625397494)"></rect><rect x="370.5061672755125" y="365.7239286230641" width="4.250483893905992" height="5.034162542220647" fill="#e9556a" opacity="0.2624213615936278" transform="rotate(258.09507424854445 372.6314092224655 368.24100989417445)"></rect><rect x="482.2847061642065" y="398.5444582394539" width="4.655708760328455" height="2.1708855083007" fill="#e9556a" opacity="0.0994362352190267" transform="rotate(200.71570312637633 484.61256054437075 399.6299009936042)"></rect><rect x="246.35687568262307" y="268.45960387785635" width="5.957130055854623" height="5.1508116517693345" fill="#e9556a" opacity="0.23644099191964402" transform="rotate(231.17511631509993 249.3354407105504 271.035009703741)"></rect><rect x="331.3927064587736" y="143.8253035139207" width="4.287851519085398" height="3.9565328158658937" fill="#e9556a" opacity="0.32050714258936963" transform="rotate(331.72055839175385 333.5366322183163 145.80356992185364)"></rect><rect x="305.2674705902351" y="12.608939756079451" width="5.832280822951477" height="6.332917078715398" fill="#e9556a" opacity="0.1002362753699507" transform="rotate(222.06860968008107 308.18361100171086 15.77539829543715)"></rect><rect x="327.3109322986231" y="122.57350286444841" width="6.482373885103675" height="7.1374280839492314" fill="#e9556a" opacity="0.24763759217065992" transform="rotate(78.34548737776721 330.5521192411749 126.14221690642303)"></rect><rect x="455.0429657477287" y="425.8752737868838" width="5.92266442436849" height="2.5435714395879674" fill="#e9556a" opacity="0.0891708820882853" transform="rotate(1.0158482757470797 458.00429795991295 427.14705950667775)"></rect><rect x="276.37905619845145" y="265.4062170974051" width="5.164967350272913" height="4.549479565040061" fill="#e9556a" opacity="0.26707277891089803" transform="rotate(260.7126659996401 278.9615398735879 267.68095687992513)"></rect><rect x="178.63121428271864" y="285.6402808116709" width="2.4366986334494776" height="1.5" fill="#e9556a" opacity="0.13831047866243235" transform="rotate(313.2960521026031 179.84956359944337 286.38654939604316)"></rect><rect x="411.92938219772867" y="205.72050037845565" width="4.195720852443818" height="3.625308140128511" fill="#e9556a" opacity="0.29831139925175976" transform="rotate(31.713591661170867 414.0272426239506 207.53315444851992)"></rect><rect x="289.568696516756" y="374.1862094897135" width="4.578129099951186" height="4.648804962655189" fill="#e9556a" opacity="0.21395491982063042" transform="rotate(207.7714257723519 291.8577610667316 376.5106119710411)"></rect><rect x="346.66951745740704" y="159.39078994914777" width="3.961185973119543" height="3.5136512981546724" fill="#e9556a" opacity="0.11239934439833588" transform="rotate(245.535011610731 348.6501104439668 161.14761559822512)"></rect><rect x="295.7008333077064" y="345.9455759661841" width="6.83361004704312" height="6.819086943450399" fill="#e9556a" opacity="0.2256330894584971" transform="rotate(216.4444150107188 299.1176383312279 349.3551194379093)"></rect><rect x="425.6541241312378" y="135.19280188417866" width="4.99143318226162" height="4.004789410479643" fill="#e9556a" opacity="0.1608172235604946" transform="rotate(181.57281409090984 428.1498407223686 137.1951965894185)"></rect><rect x="462.13941215031167" y="417.2353837611585" width="3.238437132555264" height="1.5" fill="#e9556a" opacity="0.08045249283506385" transform="rotate(203.36364625178447 463.7586307165893 417.9722117294721)"></rect><rect x="386.81183033407376" y="386.44664546785873" width="5.043493487426775" height="3.3589957009178755" fill="#e9556a" opacity="0.10688649162063968" transform="rotate(161.44540280170992 389.33357707778714 388.12614331831765)"></rect><rect x="498.6246585864034" y="271.77473940919947" width="4.832406286537836" height="2.095626362608394" fill="#e9556a" opacity="0.0802260936403132" transform="rotate(63.53644176550976 501.0408617296724 272.8225525905037)"></rect><rect x="460.79406821894554" y="384.5353384940444" width="7.681904433147006" height="8.98046165190292" fill="#e9556a" opacity="0.19677756251494685" transform="rotate(212.84426136540446 464.63502043551904 389.0255693199959)"></rect><rect x="376.34129991669715" y="63.31887890454561" width="2.575454910553738" height="2.9774599602717897" fill="#e9556a" opacity="0.13627295825334332" transform="rotate(188.8163916155772 377.629027371974 64.80760888468151)"></rect><rect x="201.391249063872" y="325.0124936821225" width="2.6001783621498284" height="1.5" fill="#e9556a" opacity="0.11676756138297151" transform="rotate(17.56109516022778 202.69133824494693 325.7401505896056)"></rect><rect x="486.5484969157115" y="173.5118067631837" width="4.216729128834199" height="3.129638545929568" fill="#e9556a" opacity="0.05197863201506816" transform="rotate(37.97961816097592 488.6568614801286 175.0766260361485)"></rect><rect x="401.62449648605696" y="146.24132233413087" width="4.759113128650521" height="4.704766105867534" fill="#e9556a" opacity="0.17461651356272487" transform="rotate(122.08348911352617 404.0040530503822 148.59370538706463)"></rect><rect x="507.93925904781946" y="155.32440015296936" width="3.104488298811246" height="3.3672679677539" fill="#e9556a" opacity="0.13124360503882826" transform="rotate(193.45758450844212 509.4915031972251 157.0080341368463)"></rect><rect x="244.31834204372768" y="207.69414516077643" width="2.1627011169505774" height="2.16779718716155" fill="#e9556a" opacity="0.20668839709875128" transform="rotate(271.39155245916527 245.39969260220298 208.7780437543572)"></rect><rect x="455.5328428624" y="108.08020720967633" width="6.197980302478178" height="3.681553815423994" fill="#e9556a" opacity="0.2170376703803309" transform="rotate(194.37711231148666 458.6318330136391 109.92098411738833)"></rect><rect x="398.3193519431463" y="321.603469939678" width="3.794516810120324" height="3.766198428450881" fill="#e9556a" opacity="0.25725049830869623" transform="rotate(166.4054553613092 400.2166103482064 323.4865691539035)"></rect><rect x="196.59667796395127" y="301.21022975496794" width="5.219673702129942" height="5.60656405818842" fill="#e9556a" opacity="0.07842821137538808" transform="rotate(162.47443564351389 199.20651481501625 304.01351178406213)"></rect><rect x="352.71393615365423" y="353.15189305573716" width="7.523646744677633" height="6.9526900305404" fill="#e9556a" opacity="0.18357908853177776" transform="rotate(335.4512192753382 356.47575952599306 356.6282380710074)"></rect><rect x="314.9717049900351" y="81.77219533719683" width="2.4901283124881464" height="2.850880833618693" fill="#e9556a" opacity="0.21586030186867994" transform="rotate(306.72233566023516 316.2167691462792 83.19763575400619)"></rect><rect x="211.63436269516984" y="294.15967159065076" width="4.693502406912624" height="5.441304365579043" fill="#e9556a" opacity="0.14723165088645435" transform="rotate(184.4845687339476 213.98111389862615 296.8803237734403)"></rect><rect x="250.56636710691416" y="201.7467695793359" width="2.4063411524548854" height="2.4063411524548854" fill="#e9556a" opacity="0.11874562699754983" transform="rotate(285.0899171107867 251.7695376831416 202.94994015556335)"></rect><rect x="342.9937343068303" y="426.6265968757914" width="3.6586466285673187" height="3.6586466285673187" fill="#e9556a" opacity="0.04630255480124734" transform="rotate(224.86635971109678 344.82305762111395 428.45592019007506)"></rect><rect x="262.63759165073793" y="187.24648563395436" width="3.307881843907704" height="3.307881843907704" fill="#e9556a" opacity="0.09081630799026055" transform="rotate(188.41806681287386 264.2915325726918 188.9004265559082)"></rect><rect x="221.9694562634045" y="261.7020064454677" width="1.5321866546441738" height="1.5321866546441738" fill="#e9556a" opacity="0.10140360086755995" transform="rotate(175.3325525556377 222.7355495907266 262.4680997727898)"></rect><rect x="248.1708813910676" y="414.49555186781475" width="3.6682770804820013" height="3.6682770804820013" fill="#e9556a" opacity="0.058405850766415635" transform="rotate(207.94699931887303 250.00501993130862 416.32969040805574)"></rect><rect x="404.1229415167649" y="386.97728743272495" width="2.152586896043544" height="2.152586896043544" fill="#e9556a" opacity="0.12816148961808602" transform="rotate(63.35541646152521 405.1992349647867 388.0535808807467)"></rect><rect x="477.73469820243264" y="317.7242130498951" width="1.3538625796110662" height="1.3538625796110662" fill="#e9556a" opacity="0.041496728421885856" transform="rotate(164.2050627824874 478.41162949223815 318.40114433970064)"></rect><rect x="497.5776995423382" y="143.63600154417043" width="2.331610480012191" height="2.331610480012191" fill="#e9556a" opacity="0.14649812422529707" transform="rotate(45.28050778679574 498.7435047823443 144.80180678417653)"></rect><rect x="374.15914643006084" y="384.8444497635281" width="1.36029272170751" height="1.36029272170751" fill="#e9556a" opacity="0.04108866557995261" transform="rotate(172.77284857480453 374.8392927909146 385.52459612438184)"></rect><rect x="370.2849526460157" y="124.7220857229034" width="3.795185238493227" height="3.795185238493227" fill="#e9556a" opacity="0.07977994777717626" transform="rotate(201.396402680034 372.1825452652623 126.61967834215001)"></rect><rect x="385.2944066950087" y="91.63006856473214" width="1.6700249890191596" height="1.6700249890191596" fill="#e9556a" opacity="0.13437637594732288" transform="rotate(253.19885340202543 386.1294191895183 92.46508105924173)"></rect><rect x="168.97483182561007" y="270.51025357450163" width="3.059232672238365" height="3.059232672238365" fill="#e9556a" opacity="0.06357870308383307" transform="rotate(182.82267722432627 170.50444816172924 272.03986991062084)"></rect><rect x="283.0757630864272" y="58.89799231149899" width="2.4007990115325892" height="2.4007990115325892" fill="#e9556a" opacity="0.09326488173718792" transform="rotate(267.4784193874702 284.2761625921935 60.09839181726528)"></rect><rect x="159.13665727003806" y="304.2984542456824" width="2.7727651762649255" height="2.7727651762649255" fill="#e9556a" opacity="0.09335854855522446" transform="rotate(223.7180981522976 160.5230398581705 305.68483683381487)"></rect><rect x="211.88163373052478" y="119.81579100306064" width="2.846772514212305" height="2.846772514212305" fill="#e9556a" opacity="0.06193907536190891" transform="rotate(84.67756394514701 213.30501998763094 121.2391772601668)"></rect><rect x="428.19873189726627" y="474.6260563064272" width="2.3371097544846635" height="2.3371097544846635" fill="#e9556a" opacity="0.14353536871892184" transform="rotate(336.43723484894133 429.3672867745086 475.79461118366953)"></rect><rect x="305.0323786155293" y="478.5012791748313" width="3.5540285494895785" height="3.5540285494895785" fill="#e9556a" opacity="0.08880710025262417" transform="rotate(186.93975256147783 306.80939289027407 480.2782934495761)"></rect><rect x="493.4978461016422" y="364.00845113449446" width="1.6608145682424373" height="1.6608145682424373" fill="#e9556a" opacity="0.058284400677440874" transform="rotate(37.25381407758864 494.32825338576345 364.8388584186157)"></rect><rect x="411.2555673934501" y="424.7693854008777" width="3.8689538542502344" height="3.8689538542502344" fill="#e9556a" opacity="0.08395378776544415" transform="rotate(300.8914060429164 413.1900443205752 426.7038623280028)"></rect><rect x="231.12022987974578" y="342.2201718944252" width="3.744235151328256" height="3.744235151328256" fill="#e9556a" opacity="0.13744007130499933" transform="rotate(43.22260487974743 232.9923474554099 344.0922894700893)"></rect><rect x="248.75579236470543" y="217.9069105947428" width="3.497162037294899" height="3.497162037294899" fill="#e9556a" opacity="0.12112895673659116" transform="rotate(336.283297844363 250.50437338335288 219.65549161339027)"></rect><rect x="472.24922690662277" y="328.9973604629302" width="1.5979400629168097" height="1.5979400629168097" fill="#e9556a" opacity="0.07638005970343018" transform="rotate(309.43649313852023 473.04819693808116 329.7963304943886)"></rect><rect x="241.80544937303634" y="198.1621919707403" width="3.0156907625569453" height="3.0156907625569453" fill="#e9556a" opacity="0.03241092033796521" transform="rotate(205.75755534961704 243.31329475431482 199.6700373520188)"></rect><rect x="252.33669267205585" y="375.784965208765" width="3.2046153467170035" height="3.2046153467170035" fill="#e9556a" opacity="0.11052427504236077" transform="rotate(356.41587272119517 253.93900034541434 377.3872728821235)"></rect><rect x="388.7655759063211" y="111.69902928006351" width="1.9435273194422606" height="1.9435273194422606" fill="#e9556a" opacity="0.0499102052207618" transform="rotate(343.63894392905706 389.73733956604224 112.67079293978465)"></rect><rect x="293.47148201925046" y="386.45134822896614" width="2.7801550476719417" height="2.7801550476719417" fill="#e9556a" opacity="0.04398954291548093" transform="rotate(7.906346678690215 294.86155954308646 387.84142575280214)"></rect><rect x="477.6289444183413" y="259.2793099783132" width="3.405499177242396" height="3.405499177242396" fill="#e9556a" opacity="0.03243363792190032" transform="rotate(146.96062955398142 479.3316940069625 260.9820595669344)"></rect><rect x="200.70765985508538" y="224.1977300947029" width="2.970819962197365" height="2.970819962197365" fill="#e9556a" opacity="0.09223485312528668" transform="rotate(68.53255813407365 202.19306983618407 225.6831400758016)"></rect><rect x="365.7875409377646" y="353.78397351848696" width="2.4469726516152606" height="2.4469726516152606" fill="#e9556a" opacity="0.07244843816498688" transform="rotate(152.32268372193104 367.01102726357226 355.0074598442946)"></rect><rect x="185.74698344117252" y="349.0220376843835" width="1.346723151089029" height="1.346723151089029" fill="#e9556a" opacity="0.1275175234198186" transform="rotate(165.1200423972309 186.42034501671702 349.695399259928)"></rect><rect x="422.9529527160442" y="185.56681687872276" width="1.4024655243393338" height="1.4024655243393338" fill="#e9556a" opacity="0.07806675600263605" transform="rotate(268.5681085421555 423.65418547821383 186.26804964089243)"></rect><rect x="444.77182735403017" y="108.60664767402808" width="3.468675125142874" height="3.468675125142874" fill="#e9556a" opacity="0.056993577362500866" transform="rotate(122.73939315357217 446.5061649166016 110.34098523659952)"></rect><rect x="260.0092941516272" y="404.2484521441634" width="1.8270771879828893" height="1.8270771879828893" fill="#e9556a" opacity="0.054707460154177365" transform="rotate(202.35581141074925 260.9228327456187 405.1619907381549)"></rect><rect x="414.03241958138625" y="409.5292197976305" width="3.000337634701439" height="3.000337634701439" fill="#e9556a" opacity="0.127854400993257" transform="rotate(200.95517125025165 415.53258839873695 411.0293886149812)"></rect><rect x="317.6013541141772" y="71.61655003237159" width="1.0273195938334425" height="1.0273195938334425" fill="#e9556a" opacity="0.11282722238582894" transform="rotate(19.249627040349704 318.1150139110939 72.13020982928832)"></rect><rect x="282.17254037444167" y="387.031761447354" width="2.4680702497568308" height="2.4680702497568308" fill="#e9556a" opacity="0.12398211947362037" transform="rotate(222.80251956675318 283.40657549932007 388.2657965722324)"></rect><rect x="286.2958400970933" y="157.88266066795538" width="2.752399219084717" height="2.752399219084717" fill="#e9556a" opacity="0.060334439124136434" transform="rotate(188.8410188205731 287.67203970663564 159.25886027749775)"></rect><rect x="289.4259847845135" y="405.3419819737177" width="3.2116468833813663" height="3.2116468833813663" fill="#e9556a" opacity="0.03332901528260159" transform="rotate(137.9002788746265 291.0318082262042 406.94780541540837)"></rect><rect x="460.6864581440507" y="178.03521964074955" width="1.823273843537678" height="1.823273843537678" fill="#e9556a" opacity="0.06793970465564156" transform="rotate(91.61860053037228 461.5980950658195 178.94685656251838)"></rect><rect x="160.6751096310855" y="242.308146152745" width="3.452051873529354" height="3.452051873529354" fill="#e9556a" opacity="0.05144483177989946" transform="rotate(76.30060894242516 162.40113556785016 244.03417208950967)"></rect><rect x="304.51510404280447" y="163.96406717855" width="3.2326185210759837" height="3.2326185210759837" fill="#e9556a" opacity="0.05651801058394741" transform="rotate(314.33804688711564 306.13141330334247 165.580376439088)"></rect><rect x="345.3084988526087" y="141.2164310856679" width="3.873218878113301" height="3.873218878113301" fill="#e9556a" opacity="0.07106221342508784" transform="rotate(262.7621340298849 347.24510829166536 143.15304052472453)"></rect><rect x="417.8757303514259" y="122.28827800507699" width="1.6302221485554345" height="1.6302221485554345" fill="#e9556a" opacity="0.0835404526505342" transform="rotate(257.23809254227115 418.6908414257036 123.10338907935471)"></rect><rect x="146.57648055541935" y="225.23168034369135" width="1.8429586830748983" height="1.8429586830748983" fill="#e9556a" opacity="0.10593176049922208" transform="rotate(192.7903727780983 147.49795989695681 226.15315968522881)"></rect><rect x="166.16989063781872" y="169.84488901972753" width="2.4445313538632036" height="2.4445313538632036" fill="#e9556a" opacity="0.1048326219221729" transform="rotate(268.61572546354296 167.39215631475034 171.06715469665914)"></rect><rect x="241.5624596662698" y="180.3084700130323" width="1.9117943713962076" height="1.9117943713962076" fill="#e9556a" opacity="0.03387768678547707" transform="rotate(63.36000672698021 242.5183568519679 181.26436719873038)"></rect><rect x="379.63577983229965" y="85.53117577962874" width="2.975182686920829" height="2.975182686920829" fill="#e9556a" opacity="0.12233800301902834" transform="rotate(227.45028940376375 381.12337117576004 87.01876712308915)"></rect><rect x="241.73267314200825" y="373.51508378897574" width="3.810932226391012" height="3.810932226391012" fill="#e9556a" opacity="0.1328770189280049" transform="rotate(280.55147444855027 243.63813925520375 375.4205499021713)"></rect><rect x="194.62643403470128" y="244.68792946533603" width="2.1827359214344693" height="2.1827359214344693" fill="#e9556a" opacity="0.06633784819223817" transform="rotate(29.11578589543504 195.7178019954185 245.77929742605326)"></rect><rect x="493.8651323518668" y="375.04311570876814" width="1.3431014089580167" height="1.3431014089580167" fill="#e9556a" opacity="0.06710666300594186" transform="rotate(60.64564288623894 494.5366830563458 375.71466641324713)"></rect><rect x="415.76492417389306" y="109.65618362049013" width="3.6899680181825385" height="3.6899680181825385" fill="#e9556a" opacity="0.09952596313763688" transform="rotate(35.0977912708641 417.6099081829843 111.50116762958139)"></rect><rect x="226.5049501044747" y="327.13834594496535" width="1.3155292041206401" height="1.3155292041206401" fill="#e9556a" opacity="0.05002998747864272" transform="rotate(251.92003867212685 227.162714706535 327.79611054702565)"></rect><rect x="475.94073591739476" y="318.6328612971608" width="2.552582966421071" height="2.552582966421071" fill="#e9556a" opacity="0.07131802631603462" transform="rotate(31.42999667275231 477.2170274006053 319.9091527803713)"></rect><rect x="248.75269909237338" y="128.2121929106309" width="3.9537552688055464" height="3.9537552688055464" fill="#e9556a" opacity="0.07163634546177292" transform="rotate(331.7763377780916 250.72957672677614 130.18907054503367)"></rect><rect x="379.46167393346275" y="420.7229298646232" width="2.384484160870539" height="2.384484160870539" fill="#e9556a" opacity="0.03313846355450268" transform="rotate(123.03501013807721 380.653916013898 421.9151719450585)"></rect><rect x="331.18234126735655" y="445.6678573953212" width="1.4796514671666787" height="1.4796514671666787" fill="#e9556a" opacity="0.09484491597155338" transform="rotate(60.265040444333586 331.9221670009399 446.4076831289046)"></rect><rect x="391.17267393506523" y="67.10285541038105" width="3.7038461909181652" height="3.7038461909181652" fill="#e9556a" opacity="0.0714924118115997" transform="rotate(305.1516913926004 393.0245970305243 68.95477850584014)"></rect><rect x="311.95844220908947" y="373.578245624354" width="1.313877368492017" height="1.313877368492017" fill="#e9556a" opacity="0.14280989259146615" transform="rotate(160.43186943998182 312.6153808933355 374.2351843086)"></rect><rect x="236.60247585287877" y="101.68489616523192" width="2.6559314819313267" height="2.6559314819313267" fill="#e9556a" opacity="0.13741962007592415" transform="rotate(28.850018376880335 237.93044159384442 103.01286190619759)"></rect><rect x="312.6651634071471" y="113.99686765123391" width="3.6518023100922825" height="3.6518023100922825" fill="#e9556a" opacity="0.14368370990906082" transform="rotate(100.9710865192912 314.49106456219323 115.82276880628005)"></rect><rect x="464.5872093219976" y="259.4473547754544" width="2.562149727047491" height="2.562149727047491" fill="#e9556a" opacity="0.074920879492965" transform="rotate(246.05549846126488 465.86828418552136 260.7284296389782)"></rect><rect x="345.1021207953277" y="432.8762605697323" width="3.283878362869787" height="3.283878362869787" fill="#e9556a" opacity="0.11949421974341116" transform="rotate(17.237370301614224 346.7440599767626 434.51819975116723)"></rect><rect x="449.5307328236671" y="289.1052910487564" width="2.795475392507145" height="2.795475392507145" fill="#e9556a" opacity="0.09287313957832434" transform="rotate(306.59062411011695 450.92847051992067 290.50302874500994)"></rect><rect x="216.64650589812533" y="153.98734304983495" width="2.2174328515387294" height="2.2174328515387294" fill="#e9556a" opacity="0.06516730390264061" transform="rotate(167.27229737084 217.75522232389469 155.0960594756043)"></rect><rect x="400.1220435827476" y="339.6692941464569" width="2.975874443992914" height="2.975874443992914" fill="#e9556a" opacity="0.09238539640902793" transform="rotate(182.613622668485 401.60998080474405 341.1572313684533)"></rect><rect x="329.31787336206196" y="424.4776950271963" width="2.328969645467107" height="2.328969645467107" fill="#e9556a" opacity="0.0506705110616379" transform="rotate(119.13976388012048 330.4823581847955 425.64217984992985)"></rect><rect x="385.2183791998205" y="117.29377170465317" width="3.332092554928778" height="3.332092554928778" fill="#e9556a" opacity="0.11578210968793468" transform="rotate(57.54848255661712 386.8844254772849 118.95981798211756)"></rect><rect x="425.0797183143365" y="414.5384550214422" width="2.2051395360404342" height="2.2051395360404342" fill="#e9556a" opacity="0.05091064722319629" transform="rotate(213.6218677897108 426.1822880823567 415.6410247894624)"></rect><rect x="181.84959174338442" y="371.544627990339" width="3.5034645719004165" height="3.5034645719004165" fill="#e9556a" opacity="0.08240994139221028" transform="rotate(87.48719163587653 183.60132402933462 373.2963602762892)"></rect><rect x="436.3618134494076" y="363.92879414236626" width="2.1901104846923194" height="2.1901104846923194" fill="#e9556a" opacity="0.09003894581461275" transform="rotate(142.42994685770475 437.45686869175375 365.02384938471243)"></rect><rect x="245.03454462172394" y="174.33511264151429" width="3.357114636971203" height="3.357114636971203" fill="#e9556a" opacity="0.06999940665438743" transform="rotate(123.08442900100928 246.71310194020953 176.01366995999987)"></rect><rect x="490.6815598040443" y="286.83151858657715" width="1.2944452028230042" height="1.2944452028230042" fill="#e9556a" opacity="0.1493713458624535" transform="rotate(208.86286154802093 491.3287824054558 287.47874118798865)"></rect></g>
  </svg>